<svg baseProfile="basic" xmlns="http://www.w3.org/2000/svg" viewBox="0 0 876 256"><path fill="#F18D24" d="M252.093 158.995c-17.1 68.6-86.5 110.3-155.1 93.2-68.5-17.1-110.3-86.6-93.2-155.1 17.1-68.6 86.5-110.3 155.1-93.2 68.6 17 110.3 86.5 93.2 155.1z"/><path fill="#FFF" d="M184.393 109.795c2.5-17-10.4-26.2-28.1-32.3l5.8-23.1-14-3.5-5.6 22.5c-3.7-.9-7.5-1.8-11.3-2.6l5.6-22.6-14-3.5-5.8 23.1c-3.1-.7-6.1-1.4-9-2.1v-.1l-19.4-4.8-3.7 15s10.4 2.4 10.2 2.5c5.7 1.4 6.7 5.2 6.5 8.2l-6.6 26.3c.4.1.9.2 1.5.5-.5-.1-1-.2-1.5-.4l-9.2 36.8c-.7 1.7-2.5 4.3-6.4 3.3.1.2-10.2-2.5-10.2-2.5l-7 16.1 18.3 4.6c3.4.9 6.7 1.7 10 2.6l-5.8 23.3 14 3.5 5.8-23.1c3.8 1 7.6 2 11.2 2.9l-5.7 23 14 3.5 5.8-23.3c23.9 4.5 42 2.7 49.5-19 6.1-17.4-.3-27.5-12.9-34.1 9.3-2.2 16.2-8.3 18-20.7zm-32.1 45c-4.3 17.4-33.7 8-43.2 5.6l7.7-30.9c9.5 2.4 40.1 7.1 35.5 25.3zm4.4-45.3c-4 15.9-28.4 7.8-36.3 5.8l7-28c7.9 2 33.4 5.7 29.3 22.2z"/><g fill="#4C4C4C"><path d="M378.7 98.5c6.1 0 11.3 1.1 15.7 3.2 4.4 2.2 8.1 5.1 11 8.7 2.9 3.7 5 7.9 6.4 12.9 1.4 4.9 2.1 10.2 2.1 15.9 0 8.7-1.6 16.9-4.8 24.7-3.2 7.8-7.6 14.5-13.1 20.2-5.5 5.7-12.1 10.3-19.7 13.6-7.5 3.3-15.7 5-24.6 5-1.1 0-3.1 0-6-.1-2.8-.1-6.1-.4-9.7-.8-3.7-.5-7.5-1.3-11.6-2.3-4.1-1-8-2.4-11.6-4.2l32.7-137.4 29.3-4.5-11.8 48.7c2.5-1.1 5-2 7.6-2.6 2.5-.7 5.2-1 8.1-1zm-24.6 80.9c4.4 0 8.6-1.1 12.5-3.2 3.9-2.1 7.3-5 10.1-8.6 2.8-3.6 5.1-7.7 6.7-12.2 1.6-4.5 2.5-9.3 2.5-14.2 0-6-1-10.8-3-14.2-2-3.4-5.7-5.1-11.2-5.1-1.8 0-4.1.3-6.9.9-2.8.6-5.4 2-7.7 4l-12.5 51.8c.8.1 1.4.3 2 .4l1.8.3c.6.1 1.4.1 2.3.1h3.4zM444.2 200h-28l23.6-99.4H468L444.2 200zm13.6-111.5c-3.9 0-7.4-1.2-10.6-3.5-3.2-2.3-4.7-5.9-4.7-10.7 0-2.6.5-5.1 1.6-7.5 1.1-2.3 2.5-4.3 4.3-6.1 1.8-1.7 3.8-3 6.1-4.1 2.3-1 4.8-1.5 7.5-1.5 3.9 0 7.4 1.2 10.6 3.5 3.1 2.3 4.7 5.9 4.7 10.7 0 2.7-.5 5.1-1.6 7.5-1.1 2.3-2.5 4.3-4.2 6.1-1.8 1.7-3.8 3-6.1 4.1-2.5 1-4.9 1.5-7.6 1.5zM492.5 75.8l29.3-4.5-7.2 29.3H546l-5.7 23.1h-31.2l-8.3 34.8c-.8 2.9-1.2 5.6-1.3 8.1-.1 2.5.2 4.7.9 6.5.8 1.8 2.1 3.2 4.1 4.2 2 1 4.7 1.5 8.4 1.5 3 0 6-.3 8.8-.9 2.8-.6 5.7-1.3 8.6-2.4l2.1 21.6c-3.8 1.4-7.9 2.6-12.3 3.6s-9.6 1.5-15.7 1.5c-8.7 0-15.4-1.3-20.2-3.9-4.8-2.6-8.2-6.1-10.2-10.6s-2.9-9.6-2.6-15.4c.3-5.8 1.1-11.9 2.6-18.3l18.5-78.2zM544.8 160.3c0-8.6 1.4-16.6 4.2-24.2 2.8-7.6 6.7-14.2 11.9-19.9 5.2-5.6 11.4-10.1 18.8-13.4 7.4-3.3 15.6-4.9 24.7-4.9 5.7 0 10.7.5 15.2 1.6s8.5 2.5 12.2 4.2l-9.6 21.9c-2.5-1-5.1-1.9-7.8-2.7-2.7-.8-6-1.2-9.9-1.2-9.3 0-16.7 3.2-22.2 9.6-5.5 6.4-8.2 15.1-8.2 25.9 0 6.4 1.4 11.6 4.2 15.6 2.8 4 7.9 6 15.3 6 3.7 0 7.2-.4 10.6-1.1 3.4-.8 6.4-1.7 9.1-2.8l2.1 22.5c-3.5 1.4-7.4 2.6-11.7 3.7-4.3 1-9.4 1.6-15.3 1.6-7.8 0-14.4-1.1-19.8-3.4s-9.9-5.3-13.4-9.2c-3.5-3.9-6.1-8.4-7.7-13.5-1.9-5.2-2.7-10.6-2.7-16.3zM669.1 202.7c-6.7 0-12.5-1-17.4-3-4.9-2-9-4.8-12.2-8.5-3.2-3.6-5.6-8-7.3-12.9-1.6-5-2.4-10.5-2.4-16.5 0-7.6 1.2-15.1 3.7-22.7 2.4-7.6 6.1-14.4 10.9-20.4 4.8-6.1 10.6-11 17.6-14.9 6.9-3.8 14.9-5.8 23.8-5.8 6.6 0 12.3 1 17.3 3s9.1 4.9 12.3 8.5c3.2 3.7 5.6 8 7.3 12.9 1.6 5 2.5 10.5 2.5 16.5 0 7.5-1.2 15.1-3.6 22.7-2.4 7.5-5.9 14.4-10.6 20.4-4.7 6-10.5 11-17.5 14.8-7.1 3.9-15.2 5.9-24.4 5.9zm13.9-80.9c-4.1 0-7.8 1.2-11 3.6-3.2 2.4-5.8 5.4-7.9 9.1-2.2 3.7-3.8 7.7-4.8 12-1.1 4.4-1.6 8.5-1.6 12.4 0 6.3 1 11.2 3 14.8 2 3.5 5.7 5.3 11 5.3 4.2 0 7.8-1.2 11-3.6 3.1-2.4 5.8-5.4 7.9-9.1 2.1-3.6 3.8-7.7 4.8-12 1.1-4.3 1.6-8.5 1.6-12.4 0-6.3-1-11.2-3-14.7-2-3.7-5.7-5.4-11-5.4zM755.5 200h-28l23.6-99.4h28.2L755.5 200zm13.6-111.5c-3.9 0-7.4-1.2-10.6-3.5-3.2-2.3-4.7-5.9-4.7-10.7 0-2.6.5-5.1 1.6-7.5 1.1-2.3 2.5-4.3 4.3-6.1 1.8-1.7 3.8-3 6.1-4.1 2.3-1 4.8-1.5 7.5-1.5 3.9 0 7.4 1.2 10.6 3.5 3.1 2.3 4.7 5.9 4.7 10.7 0 2.7-.6 5.1-1.6 7.5s-2.5 4.3-4.2 6.1c-1.8 1.7-3.8 3-6.1 4.1-2.5 1-5 1.5-7.6 1.5zM799.4 105.1c2.1-.6 4.5-1.4 7.1-2.2 2.6-.8 5.5-1.6 8.7-2.2 3.2-.7 6.8-1.3 10.8-1.7 4-.5 8.5-.7 13.5-.7 14.8 0 24.9 4.3 30.5 12.9 5.6 8.6 6.6 20.3 2.9 35.2L860.1 200h-28.2l12.5-52.5c.8-3.3 1.4-6.5 1.8-9.6.4-3.1.4-5.8-.1-8.1s-1.7-4.2-3.5-5.7c-1.8-1.4-4.6-2.2-8.4-2.2-3.6 0-7.4.4-11.1 1.1l-18.4 77h-28.2l22.9-94.9z"/></g></svg>