<svg baseProfile="basic" xmlns="http://www.w3.org/2000/svg" viewBox="0 0 715 256"><path d="M127.9 0C57.2.1-.1 57.5 0 128.2c0 33.9 13.5 66.4 37.5 90.4 50 49.9 131.1 49.9 181-.2s49.9-131.1-.2-181C194.3 13.5 161.8 0 127.9 0zm0 243.3c-63.7.1-115.3-51.5-115.4-115.2S64 12.8 127.7 12.8C191.4 12.7 243 64.3 243.1 128v.1c0 63.6-51.6 115.2-115.2 115.2z"/><path d="M59.1 186.4c-9.9-21-10.8-46.8-1.9-68.3 5.1-12.4 13.2-23.4 23.5-32 14.4-11.9 33.1-19 51.8-18.9l.1-11.5v-2.2h-2.4c-24.1.9-47 10.7-64.4 27.5-15.4 15.1-25.1 35.9-27.6 57.3-2.7 23.1 3.8 47.3 18.3 65.6l.2.3c5.9 7.4 12.9 14.1 21.3 18.6 13.9 7.7 29.5 11.9 45.4 12.5-27.3-5-52.4-23.7-64.3-48.9z"/><path d="M197.8 201.6l-8.1.6c-22.7 1.3-47.7.7-67.7-11.4-5.5-3.3-10.5-7.6-14.6-12.5-14.4-17.1-13.9-43 4.5-57.2 16-12.3 40.2-10 53.1 5.8 1.1 1.4 3.7 4.6 3.7 4.6s4.2-2.2 5.6-2.9l.4-.2.3-.1.7-.4.4-.2 3.2-1.6 1.8-.9-.1-.1c-3.7-6.2-8.7-11.7-14.6-15.9-11.3-8-25.2-11.4-38.9-9.4-22 3.3-40.2 20.3-43.8 42.3-3.7 22.8 7.7 44.6 26.4 57.3 19.5 13.2 44 15 67.1 14.1 5.4-.2 16.5-1.2 16.4-1.3 4.5-3.7 8.7-7.6 12.6-11.9 0 0-7.3 1.2-8.4 1.3z"/><path d="M159.5 222.1c-2.8-.1-5.5-.2-8.3-.5-22.8-2.2-46-10.8-61.1-28.7-13.9-16.6-19.8-40.2-13-61 10.3-31.5 44.3-48.7 75.8-38.3 1 .3 2 .7 3.1 1.1 0 0 2.7-5.9 3-6.4v-.1l.1-.2.2-.4c.9-1.8 1.7-3.7 2.6-5.5-19.1-6.8-39.7-7.2-58.5 1.3-37.3 17-53.8 61.1-36.8 98.4 2.2 4.8 4.9 9.4 8.1 13.7 8.2 11 19.5 19.4 31.6 25.7 19.2 9.9 46.8 11.2 48.8 10.7 9.5-2.3 23.2-8.8 26-11-4.1.8-11.2 1.1-15.4 1.2-2.1.1-4.1.1-6.2 0z"/><path fill="#1A1A1A" d="M291.4 94h32.1c6.9 0 12 1.7 15.5 4.6 3.8 3.2 5.7 7.4 5.7 12.8 0 6.6-3.4 10.8-9.4 13.1v.3c7.2 2.2 11.9 8.4 11.9 16.3 0 6.7-2.4 11.6-6.8 14.9-3.9 3.1-9.4 4.8-16.4 4.8h-32.7V94zm29.7 26.3c4.8 0 8-2.3 8-6.7 0-4.1-3.1-6.6-7.9-6.6h-13.5v13.3h13.4zm1.3 27c5.4 0 8.7-3.1 8.7-7.9 0-5.3-3.9-8-8.9-8h-14.6v15.8h14.8zM353.7 94h15.2v12.3h-15.2V94zm0 18.9h15.2v47.6h-15.2v-47.6zM380 148v-25.6h-6.4v-9.5h6.4V97.8h14.8v15.1h8.6v9.5h-8.6v22.3c0 3.7 2 4.7 5.3 4.7 1.3 0 5.1-.1 5.6-.1v11.1c-1.3.4-6.5.7-10.5.7-8.8-.1-15.2-2.9-15.2-13.1zm37.9-40.1h-17V94h50.8v13.9h-17.3v52.6h-16.5v-52.6zm23.5 28.9c0-14.3 10.2-25.2 25.5-25.2s25.4 10.8 25.4 25.2-10.1 25.2-25.4 25.2c-15.3 0-25.5-10.8-25.5-25.2zm35.5 0c0-8.6-3.5-14.6-10.1-14.6s-10.1 5.8-10.1 14.6c0 8.7 3.4 14.4 10.1 14.4 6.6 0 10.1-5.8 10.1-14.4zm20.8-23.9h14.6v7.4h.3c3.4-5.6 7.5-8 11.9-8.2 1.4-.1 2.3.1 3 .4v13.1h-.5c-8-1.1-14.1 3.3-14.1 13.6v21.4h-15.2v-47.7zm34.2 0h14.6v7.4h.3c3.4-5.6 7.5-8 11.9-8.2 1.4-.1 2.3.1 3 .4v13.1h-.4c-8-1.1-14.1 3.3-14.1 13.6v21.4H532l-.1-47.7zm30.1 23.7c0-14.2 10-25.1 24.4-25.1 6.8 0 12.2 2.2 16.3 5.9 5.6 5.2 8.5 13.5 8.4 23.2h-34.2c1 6.4 4.5 10.4 10.7 10.4 4 0 6.6-1.8 7.9-4.8h14.8c-1.1 4.3-3.8 8.4-8 11.3-4 2.8-8.8 4.4-14.9 4.4-15.7 0-25.4-10.8-25.4-25.3zm33.7-5c-.5-5.6-4.1-9.4-9-9.4-5.7 0-8.7 3.6-9.8 9.4h18.8zm20.6-18.7h14.6v6.5h.3c3.5-5.1 8.1-7.9 14.7-7.9 10.4 0 16.6 7.4 16.6 18.1v31h-15.1v-28c0-5-2.5-8.5-7.4-8.5-5 0-8.4 4.1-8.4 10.1v26.4h-15.2l-.1-47.7zm55.5 35.1v-25.6h-6.4v-9.5h6.4V97.8h14.8v15.1h8.6v9.5h-8.6v22.3c0 3.7 2 4.7 5.3 4.7 1.3 0 5.1-.1 5.6-.1v11.1c-1.3.4-6.5.7-10.5.7-8.9-.1-15.2-2.9-15.2-13.1z"/></svg>