<svg baseProfile="basic" xmlns="http://www.w3.org/2000/svg" viewBox="0 0 750 256"><path fill="#0033AD" d="M124.9 10.4c5.6-2.9 12.4 3.8 9.4 9.4-1.7 4.5-8.2 5.8-11.6 2.3-3.5-3.3-2.4-9.9 2.2-11.7m-60.1 6.5c3.4-1.4 7.7 1.7 7.3 5.4.4 4-4.5 7-8 5.1-4.5-1.8-4-9.2.7-10.5m123 10.6c-5.3-.6-6.1-9-1-10.6 4-1.9 7.6 1.7 8.2 5.4-.9 3.2-3.6 6.1-7.2 5.2M78.5 42.4c5.7-3.6 13.8 1.8 12.9 8.3-.3 6.6-9.1 10.5-14.1 6-4.8-3.5-4.1-11.5 1.2-14.3m86.5 3.8c2.5-6.5 12.8-6.7 15.6-.4 2.8 4.9-.7 11-5.7 12.7-6.7 1.4-13.1-5.9-9.9-12.3m-47.4 12c-.1-5.6 5-9.8 10.4-10.2 3.5.7 7.4 2.2 8.9 5.8 2.8 4.9.3 11.7-4.8 13.9-2.3 1.3-5.1.8-7.6.7-3.9-1.9-7.2-5.6-6.9-10.2m-89.2 8.2c5.2-3.2 12.2 2.6 10.2 8.2-1.1 4.9-7.6 6.8-11.4 3.7-4-2.8-3.3-9.8 1.2-11.9m191.6 0c4.4-3.4 11.6.5 11.1 6 .3 5.1-6 8.9-10.3 6.3-4.8-2.2-5.3-9.6-.8-12.3m-77.3 10c7.2-2.6 15.9.5 20 7 5.4 7.9 2.5 19.9-5.9 24.5-8.8 5.4-21.6.8-24.8-9-3.7-8.7 1.7-19.7 10.7-22.5m-42.5.9c8-3.8 18.8-.6 22.7 7.6 4.6 8 1 19.1-7.1 23.3-8.2 4.6-19.7 1.1-23.7-7.5-4.4-8.3-.5-19.6 8.1-23.4M57.6 91.9c.6-5.2 5.5-8.5 10.4-8.9 5.3.6 9.5 4.8 10.1 10.1-.3 5.3-4.5 10.5-10.1 10.5-6.1.5-11.6-5.6-10.4-11.7m125.8-7.8c6.4-3.7 15.2 1.7 14.9 9 .4 7.7-9.3 13.2-15.7 8.7-6.6-3.8-6-14.5.8-17.7M82.9 111.4c7.4-2 16 1.5 19.6 8.3 4 6.9 2.4 16.5-3.8 21.5-8 7.4-22.7 4.4-26.9-5.7-4.9-9.2 1-21.7 11.1-24.1m80.7 0c7.2-2.1 15.7.7 19.6 7.3 5.1 7.5 2.7 18.8-5 23.6-8 5.6-20.4 2.7-24.9-6.1-5.3-9.2.1-22.1 10.3-24.8M35 120c6.4-2.4 13.6 4.7 11 11-1.6 5.8-9.8 8-14 3.7-5-4-3.1-13 3-14.7m174.3 9.2c-.2-5.3 3.7-10 9.2-10.3 4.4.7 8.7 4.2 8.3 9 .4 6.3-7.2 10.6-12.6 7.7-2.5-1.3-3.8-3.9-4.9-6.4M3.4 123.1c3.9-1.7 8.7 1.7 7.8 6-.2 4.9-7.4 6.7-10 2.7-2.4-2.9-1-7.3 2.2-8.7zm243.9-.1c2.7-1.9 7.1-.5 8.2 2.6 1.8 3.5-1.5 8.2-5.4 7.6-5.5.6-7.3-7.8-2.8-10.2m-143.4 23.3c10.2-2.6 21.1 5.8 21.2 16.3.7 10.6-10.1 20-20.5 17.5-8.1-1.3-14.4-9.1-14.1-17.2-.1-7.7 5.8-14.9 13.4-16.6m40.3 0c10.3-2.9 21.6 5.8 21.4 16.5.5 10.4-9.9 19.5-20.1 17.4-9.6-1.2-16.7-11.8-14-21.1 1.4-6.2 6.6-11.3 12.7-12.8m-77.7 6.5c7.1-1.2 13.9 6.8 11 13.5-2.1 7.2-12.6 9.2-17.3 3.3-5.5-5.7-1.4-16 6.3-16.8m118.2.3c6.4-2.7 14.2 2.8 13.7 9.8.3 7.6-9.4 12.9-15.6 8.4-7.1-4-5.8-15.8 1.9-18.2m33.1 33.1c-2.5-4.7 2-10.8 7.2-10 2.6 0 4.4 2 6 3.7.3 2.8.9 6-1.4 8.2-3.1 4-10.2 2.8-11.8-1.9m-189.4-8.6c4.8-3.2 11.8 1.6 10.7 7.2-.6 5-6.9 7.8-11 5-4.5-2.6-4.3-9.9.3-12.2m95.3 10.4c6.3-2.8 14.4 2.7 13.8 9.7.5 7.7-9.5 13-15.7 8.4-6.8-4-5.7-15.6 1.9-18.1m-44.1 10.3c5.4-2.8 12.6 2.1 12.1 8.1.2 4.9-4.7 9.2-9.5 8.4-4-.1-6.7-3.7-8-7.2 0-3.7 1.6-7.9 5.4-9.3m89.5.1c5.5-3.4 13.4 1.5 12.9 7.9.1 6.7-8.8 11-13.9 6.6-5.1-3.4-4.4-11.7 1-14.5m15.5 38.5c-2.5-3.7.4-8.2 4.4-9.1 3.2.7 6.6 3.1 5.9 6.8-.4 5.1-7.8 6.6-10.3 2.3m-123.5-3.3c1-3 3.4-5.9 6.8-5.1 5.1.4 6.6 8 2.1 10.4-3.9 2.7-8.6-1-8.9-5.3m59.6 3.4c1-4.4 6.6-6.5 10.4-4.2 2.5 1.1 3.2 3.8 3.8 6.2-.3 1.2-.6 2.4-.9 3.7-1.5 1.8-3.5 3.6-6 3.6-4.8.5-9.1-4.8-7.3-9.3"/><path fill-rule="evenodd" clip-rule="evenodd" fill="#0033AD" d="M334.8 108.4l-8.8 11.3c-3.2-5.3-8.5-7.8-13.8-7.8-14.5-.4-18.7 19.1-9.9 26.9 7.4 6.7 16.3 6 24-2.8l8.8 10.3c-6 8.8-23 11.3-32.2 9.2-13.8-3.2-20.5-13.4-20.5-26.5 0-14.5 10.3-28.6 26.9-29 9.2 0 18.7 2.1 25.8 8.8l-.3-.4zm87 3.5v16.6c6.7 0 18.4 1.8 18.7-8.1.1-10.6-11.6-8.1-18.7-8.5zm-14.1-12h24c16.6.4 23 9.9 23.3 19.8.4 6.4-2.5 13.1-9.2 17.7l11.7 18.4h-17c-1.4-2.5-7.1-14.9-9.5-15.9-2.8-1.1-6-.7-8.8-.7v16.6h-14.5V99.9zm59.4.7c9.9 0 19.8-.4 29.7.7 6 .7 12 2.8 16.6 6.7 4.6 3.9 7.4 9.5 8.1 15.2.7 6.7 0 13.8-3.9 19.8-4.2 6.4-11.7 10.6-19.4 11.3-10.3 1.4-20.5.7-31.1.7v-54.8.4zm15.2 11v32.5c4.2 0 8.5.7 12.7-.7 5.3-1.4 9.2-4.9 10.3-9.9 1.4-6.4.7-14.5-5-18.7-5.3-4-12-3.2-18-3.2zm66.1-11.7h14.9l23.3 55.9h-17l-2.8-10.6h-23.7l-3.5 10.3-16.3.4 24.4-55.9h.7zm-1 34.6h15.9l-8.1-18.7-7.8 18.7zm48.4-34.6h11.7l23.3 30.8.4-30.8H645l.4 55.9h-11.7l-24-30.4.4 30.4H596l.4-56.2-.6.3zm90.2 0c15.9 0 29 12.7 29 28.3s-13.1 28.3-29 28.3-29-12.7-29-28.3 13.1-28.3 29-28.3zm0 13.1c8.5 0 15.2 6.7 15.2 14.9 0 8.1-6.7 14.9-15.2 14.9s-15.2-6.7-15.2-14.9S677.5 113 686 113zM361.3 99.9h14.9l23.3 55.9h-17l-2.8-10.6H356l-3.5 10.3-16.3.4 24.4-55.9h.7zm-1 34.6h15.9l-8.1-18.7-7.8 18.7zm0 0"/></svg>