<svg baseProfile="basic" xmlns="http://www.w3.org/2000/svg" viewBox="0 0 1064 256"><path fill="#2F3030" d="M80 181.3l80-48.7L80 0z"/><path fill="#828384" d="M80 0L0 132.6l80 48.7z"/><path fill="#2F3030" d="M80 256l80-112.8-80 51.9z"/><path fill="#828384" d="M80 195.1L0 143.2 80 256z"/><path fill="#131313" d="M80 83.9v97.4l80-48.7-80-48.7z"/><path fill="#343535" d="M80 83.9L0 132.6l80 48.7z"/><path fill="#3C3C3B" d="M276.2 142.2c0 1.9-1.6 3.4-3.5 3.4h-66.9c1.7 16.5 14.1 31.6 31.6 31.6 12 0 20.8-4.6 27.5-14.1 1-1.3 2.4-2.2 4.3-1.4 1 .4 1.7 1.4 1.9 2.4.2 1.1-.1 1.7-.4 2.3-6.7 11.7-20.1 17.5-33.3 17.5-22.5 0-38.5-20.1-38.5-41.7s16-41.7 38.5-41.7c22.5.2 38.8 20.2 38.8 41.7m-7.1-3.2c-1.5-16.5-14.1-31.6-31.6-31.6s-29.9 15.1-31.6 31.6h63.2zm88.3-36.7c1.9 0 3.3 1.7 3.3 3.3 0 1.9-1.5 3.3-3.3 3.3h-17.9v70.4c0 1.7-1.5 3.3-3.3 3.3-1.9 0-3.3-1.7-3.3-3.3V109h-17.2c-1.9 0-3.3-1.5-3.3-3.3 0-1.7 1.5-3.3 3.3-3.3h17.2V76.6c0-1.6 1.1-3.1 2.7-3.4 2.2-.4 4 1.2 4 3.3v25.8h17.8zm109.4 34V179c0 1.9-1.7 3.3-3.3 3.3-1.9 0-3.3-1.5-3.3-3.3v-42.6c0-14.4-8.1-28.7-24.2-28.7-20.6 0-29.5 18-28.3 36.4 0 .5.2 2.6.2 2.9v32c0 1.6-1.1 3.1-2.7 3.4-2.2.4-4-1.2-4-3.3v-140c0-1.7 1.5-3.3 3.3-3.3 1.9 0 3.3 1.7 3.3 3.3v79.3c5.8-10.3 16-17.2 28-17.2 19.8-.3 31 16.9 31 35.1m120 5.9c0 1.9-1.6 3.4-3.5 3.4h-66.9c1.7 16.5 14.1 31.6 31.6 31.6 12 0 20.8-4.6 27.5-14.1 1-1.3 2.4-2.2 4.3-1.4 1 .4 1.7 1.4 1.9 2.4.2 1.1-.1 1.7-.4 2.3-6.7 11.7-20.1 17.5-33.3 17.5-22.5 0-38.5-20.1-38.5-41.7s16-41.7 38.5-41.7c22.5.2 38.7 20.2 38.8 41.7m-7.2-3.2c-1.5-16.5-14.1-31.6-31.6-31.6s-29.9 15.1-31.6 31.6h63.2zm89.3-33.6c0 2.2-1.2 3.3-3.1 3.6-19.6 2.9-28.5 18.9-28.5 37.6v32c0 1.6-1.1 3.1-2.7 3.4-2.2.4-4-1.2-4-3.3v-72.9c0-1.6 1.1-3.1 2.7-3.4 2.2-.4 4 1.2 4 3.3v14.9c5.5-9.3 16.5-18.2 28-18.2 1.7-.1 3.6 1.2 3.6 3m109.9 36.8c0 1.9-1.6 3.4-3.5 3.4h-66.9c1.7 16.5 14.1 31.6 31.6 31.6 12 0 20.8-4.6 27.5-14.1 1-1.3 2.4-2.2 4.3-1.4 1 .4 1.7 1.4 1.9 2.4.2 1.1-.1 1.7-.4 2.3-6.7 11.7-20.1 17.5-33.3 17.5-22.5 0-38.5-20.1-38.5-41.7s16-41.7 38.5-41.7c22.5.2 38.7 20.2 38.8 41.7m-7.2-3.2c-1.5-16.5-14.1-31.6-31.6-31.6s-29.9 15.1-31.6 31.6h63.2zm115.2-32.7v73.1c0 1.9-1.7 3.3-3.3 3.3-1.9 0-3.3-1.5-3.3-3.3v-13.9c-5.5 11-15.3 18.9-27.8 18.9-19.9 0-30.9-17.2-30.9-35.4v-42.9c0-1.7 1.5-3.3 3.3-3.3 1.9 0 3.3 1.7 3.3 3.3V149c0 14.4 8.1 28.7 24.2 28.7 22.5 0 27.8-21.1 27.8-44.3v-27.3c0-1.9 1.9-3.9 4.3-3.2 1.4.5 2.4 1.9 2.4 3.4m169.2 29.8V179c0 1.9-1.7 3.3-3.3 3.3-1.9 0-3.3-1.5-3.3-3.3v-42.9c0-14.4-8.1-28.5-24.2-28.5-20.1 0-27.8 21.5-27.8 38.3V179c0 1.9-1.7 3.3-3.3 3.3-1.9 0-3.3-1.5-3.3-3.3v-42.9c0-14.4-8.1-28.5-24.2-28.5-20.4 0-28.7 16-28 37.4 0 .5.2 1.5 0 1.7v32.2c0 1.6-1.1 3.1-2.7 3.4-2.2.4-4-1.2-4-3.3v-73.1c0-1.6 1.1-3.1 2.7-3.4 2.2-.4 4 1.2 4 3.3V118c5.8-10.3 16-17 28-17 13.6 0 24.2 8.6 28.5 21.3 5.5-12.4 16.3-21.3 30.2-21.3 19.4-.1 30.7 16.9 30.7 35.1"/></svg>