<svg baseProfile="basic" xmlns="http://www.w3.org/2000/svg" viewBox="0 0 928 256"><g fill="#345D9D"><path d="M128 0C57.3 0 0 57.3 0 128s57.3 128 128 128 128-57.3 128-128c.3-70.7-57-128-128-128zm2.2 132.3l-13.3 44.9h71.3c2.2 0 3.7 1.5 3.7 3.7v.9l-6.2 21.4c-.6 2.2-2.5 3.4-4.6 3.4H71.9l18.3-62.3-20.5 6.2 4.6-14.3 20.5-6.2 25.7-87.4c.6-2.2 2.5-3.4 4.6-3.4h27.6c2.2 0 3.7 1.5 3.7 3.7v.9l-21.7 73.8 20.5-6.2-4.3 14.9-20.7 6zM330.4 38.7h-8.1c-1.5 0-2.5.9-2.8 2.5L299 204.5c-.3 1.5.3 2.5 1.9 2.5h8.1c1.2.3 2.5-.6 2.8-2.2v-.3l20.8-163.3c.3-1.5-.7-2.5-2.2-2.5zM371.9 85.8h-8.1c-1.2 0-2.5.9-2.8 2.2v.3l-14.6 116.2c-.3 1.5.6 2.5 2.2 2.5h8.1c1.2.3 2.5-.6 2.8-2.2v-.3l14.6-116.2c0-1.5-.3-2.5-2.2-2.5zM720.3 84c-21.1-.6-39.7 13.6-44.9 34.4-2.2 9.3-3.7 18.6-5 28.2-1.2 9.3-2.2 18.6-2.2 28.2-.3 9.3 3.4 18.3 9.9 24.8 6.5 6.2 15.2 9.3 26.7 9.3 10.2.3 20.5-3.1 28.5-9.3s13.6-14.9 16.1-24.8c2.2-9.3 4-18.6 5-28.2 1.2-9.3 1.9-18.9 2.2-28.2.3-9.3-3.1-18.3-9.6-24.8-7.8-6.8-17.1-10.2-26.7-9.6zm22.3 51.1c-.6 5.9-1.2 9.6-1.2 11.2-1.5 12.1-2.8 20.5-4 25.7-1.5 7.4-5.6 13.9-11.5 18.6-5.6 4.6-12.7 7.1-20.1 6.8-13 .9-24.2-9-25.1-22v-2.8c0-5 .3-9.9 1.2-14.9.6-5.9 1.2-9.6 1.2-11.2 1.5-11.5 2.8-20.1 4-25.7 1.5-7.4 5.6-13.9 11.5-18.6 5.6-4.6 12.7-7.1 20.1-6.8 13-.9 24.2 9 25.1 22v2.8c-.3 5-.6 10-1.2 14.9zM801.8 85.8H794c-1.5 0-2.5.9-2.8 2.5L776 204.5c-.3 1.5.6 2.5 2.2 2.5h8.1c1.2 0 2.5-.9 2.8-2.2l14.6-116.2c.3-1.8-.4-2.8-1.9-2.8zM901.9 92.7c-5.6-5.6-13-8.7-22.9-8.7-6.2 0-12.1 1.2-18 3.7-5.6 2.5-10.2 6.2-13.9 11.2-.6.6-.9.6-.9-.6l1.2-10.2c.3-1.5-.3-2.5-1.9-2.5h-7.7c-1.2 0-2.5.9-2.8 2.2l-14.9 116.8c-.3 1.5.3 2.5 1.9 2.5h8.1c1.5 0 2.5-.9 2.8-2.5l10.5-83.4c1.5-7.1 5.3-13.6 10.8-18.6 5.6-4.6 12.4-7.1 19.5-7.1 6.2-.3 12.4 2.2 16.7 6.8 4.3 5 6.5 11.5 6.2 18 0 1.9 0 3.4-.3 5.3l-9.6 79c0 .6 0 1.2.3 1.5.6.6 1.2.6 1.9.6h7.7c1.2 0 2.5-.9 2.8-2.2l10.2-81.2c.3-3.1.6-5.6.6-7.1.4-8.7-2.4-17-8.3-23.5zM377.2 39.1c-4.6-2.5-10.5-.6-13.3 4-2.5 4.6-.6 10.5 4 13.3 4.6 2.5 10.5.6 13.3-4 2.5-5 .6-10.9-4-13.3zM807.4 39.1c-4.6-2.5-10.5-.6-13.3 4-2.5 4.6-.6 10.5 4 13.3 4.6 2.5 10.5.6 13.3-4 2.5-5 .6-10.9-4-13.3zM616.4 84c-10.2-.3-20.5 3.1-28.8 9.6-8.1 6.2-13.6 14.9-16.1 24.8-2.2 9.3-3.7 18.6-5 28.2-1.2 9.3-1.9 18.6-2.2 28.2-.3 9.3 3.4 18.3 9.9 24.8 6.5 6.2 15.2 9.3 26.7 9.3 10.2.3 20.5-3.1 28.5-9.3s13.6-14.9 16.1-24.8c.3-.9.3-1.5.6-2.5 0-.6-.3-1.2-.9-1.2H635.4c-.6 0-1.2.3-1.5 1.2v.6c-1.5 7.4-5.6 13.9-11.5 18.6-5.6 4.6-12.7 7.1-20.1 6.8-13 .9-24.2-9-25.1-22v-2.8c0-5 .3-9.9 1.2-14.9.6-5 1.2-9.6 1.2-11.2 1.5-11.5 2.8-20.1 4-25.7 1.5-7.4 5.6-13.9 11.2-18.6 5.6-4.6 12.7-7.1 20.1-6.8 13-.9 24.2 9 25.1 22V121.4c0 .9.6 1.9 1.9 1.9h9.3c.9 0 1.5-.6 1.5-1.2v-2.8c.3-9.3-3.1-18.3-9.9-24.8-7.1-7.7-16.4-11.1-26.4-10.5zM536.5 93.3c-7.1-6.5-16.7-9.9-26.3-9.3-21.1-.6-39.7 13.6-44.9 34.4-2.2 9.3-3.7 18.6-5 28.2-1.5 9.3-2.2 18.6-2.2 28.2-.3 9.3 3.4 18.3 9.9 24.8 6.5 6.2 15.2 9.3 26.7 9.3 10.2.3 20.5-3.1 28.5-9.3s13.6-14.9 16.1-24.8c.3-.9.3-1.5.6-2.5 0-.6-.3-1.2-.9-1.2H528.8c-.6 0-1.2.3-1.5 1.2v.6c-1.5 7.4-5.6 13.9-11.5 18.6-5.6 4.6-12.7 6.8-20.1 6.8-13 .9-24.2-9-25.1-22v-2.8c0-4.3.3-8.7.9-13l71.6-22.3c1.2-.3 2.2-1.5 2.2-2.8.3-3.7.6-9.9.6-16.4.8-9.9-2.9-18.9-9.4-25.7zm-2.8 33.5c0 .6-.6 1.2-1.2 1.5l-59.2 18.3v-.3c1.5-11.5 2.8-20.1 4-25.7 1.5-7.4 5.6-13.9 11.5-18.6 5.6-4.6 12.7-7.1 20.1-6.8 6.8-.3 13.3 2.2 18.3 7.1 7.1 7.1 7.1 14.9 6.5 24.5zM431.1 194c.9-.6 2.2-.3 2.5.6.3.3.3.6.3 1.2l-.9 8.1c0 .9-.9 1.9-1.9 2.5-8.1 3.1-16.7 3.4-24.8.3-9-4-11.5-13-10.2-24.2l10.5-85.2 1.5-12.4 3.4-27.3c0-1.2 1.2-2.5 2.5-2.5h8c1.9 0 2.2.9 1.9 2.5L419.3 96h24.8c1.5 0 2.2.9 1.9 2.5l-.6 5.6c0 .6-.3 1.2-.6 1.9-.6.3-1.2.6-1.9.6h-24.8l-8.7 69.7c-.9 7.4-1.9 14.3 1.9 18 5.2 4.4 14.9 2.2 19.8-.3z"/></g></svg>