<svg baseProfile="basic" xmlns="http://www.w3.org/2000/svg" viewBox="0 0 867 256"><path d="M219.9 48L189 63.8 40.2 139.6c-.5-3.8-.8-7.7-.8-11.6.1-49 39.8-88.6 88.8-88.6 15.1 0 29.9 3.9 43.1 11.3l17.6-9 2.6-1.3C143.2 5.2 75.5 16 40.3 64.4A108.5 108.5 0 0019.7 128c0 2.8.1 5.5.3 8.2.6 7.9-3.6 15.4-10.7 19L0 160.1v22.1l27.4-14 8.9-4.5 8.7-4.5 156.9-80 17.6-9L256 51.7V29.6L219.9 48zM256 73.9L53.9 176.8l-17.6 9L0 204.3v22.1L36 208l30.8-15.7 149-75.9c.5 3.9.8 7.8.8 11.7 0 49-39.8 88.6-88.7 88.6-15.2 0-30.1-3.9-43.3-11.3l-1.1.6-19.1 9.7c48.4 35.1 116.1 24.4 151.3-24 13.4-18.5 20.7-40.7 20.7-63.6 0-2.8-.1-5.6-.3-8.3-.6-7.9 3.6-15.4 10.7-19l9.3-4.7V73.9zM560.4 89.2c-30.9 0-54.9 22.7-54.9 58.7 0 33.4 19.8 59.1 55.5 59.1 27.6 0 45.6-16.2 50.7-35.5h-19.8c-4.8 11.1-14.1 18.7-30.9 18.7-16.6 0-34.3-11.8-34.9-36.2h87.1c2.3-36-18.1-64.8-52.8-64.8zm-34.1 48.4c1.7-22.7 17.2-32 34.1-32 20.4 0 32 16 32.6 32h-66.7zM389.1 116.8l-17.6-4c-14.4-3.2-24.9-9.9-24.9-23.3 0-17 20.6-22.3 32.4-22.3 15.2 0 32.8 6.1 37.9 23.5h20.8c-6.1-29.2-30.3-41.6-57.8-41.6-24.6 0-55.1 12.4-55.1 41.6 0 25.2 20.8 37 41.9 41.6l19 4c19.1 4.4 32.8 10.7 32.8 26.9 0 15.2-12.8 25.7-35.5 25.7-23.8 0-38.1-10.9-42.1-32h-21.1c4 30.3 26.7 50 62.7 50 30.3 0 58-16 58-45.6-.1-30.6-28-39.5-51.4-44.5zM481.5 62.7h-19.1v28.4h-17.9v15.4h17.9v69.4c0 23.6 5 28.4 26.7 28.4H503v-16h-9.7c-10.9 0-11.8-2.9-11.8-14.7v-67.1H503V91.1h-21.4l-.1-28.4zM860.7 90.5c-14.9.6-26.3 7.6-32 20.4V91.1H810v113.1h19.1V145c0-25.2 8.8-34.7 26.5-34.7 3.6 0 7.2.3 10.7.8V90.7c-1.8-.2-3.7-.2-5.6-.2zM791.6 161.6l.2-26.1c.2-32.2-13.2-46.7-45-46.7-21.9 0-43.7 13.7-45.4 38.1h19.8c.8-14.1 9.9-22.5 25.9-22.5 14.3 0 25.7 6.7 25.7 27.5v2.7c-46.3 5.1-76.5 13-76.5 39.7 0 20.8 17.7 32.6 38.9 32.6 20.2 0 31.8-6.5 38.7-18.3.2 5.2.7 10.4 1.5 15.6h19.3c-2.4-10.7-3.3-23.5-3.1-42.6zm-17.4-4.6c0 26.7-17 34.9-34.9 34.9-13.7 0-21.9-7.1-21.9-17.9 0-15.6 22.1-20.8 56.8-24.2v7.2zM626 51.7h19.1v152.5H626zM664.3 51.7h19.1v152.5h-19.1z"/></svg>