<svg baseProfile="basic" xmlns="http://www.w3.org/2000/svg" viewBox="0 0 972 256"><g fill-rule="evenodd" clip-rule="evenodd"><path fill="#50AF95" d="M53.9 1.3L.2 114c-.4.9-.2 1.9.5 2.5l144.9 138.9c.9.8 2.2.8 3.1 0l144.9-138.9c.7-.7.9-1.7.5-2.5L240.4 1.3c-.4-.8-1.1-1.3-2-1.3H55.9c-.9 0-1.7.5-2 1.3z"/><path fill="#FFF" d="M165.8 125.5c-1 .1-6.4.4-18.4.4-9.5 0-16.3-.3-18.7-.4-36.9-1.6-64.4-8-64.4-15.7s27.5-14.1 64.4-15.7v25.1c2.4.2 9.3.6 18.8.6 11.4 0 17.2-.5 18.2-.6V94.1c36.8 1.6 64.2 8.1 64.2 15.7s-27.4 14.1-64.1 15.7zm0-34V69.1h51.3V34.9H77.3v34.2h51.3v22.4c-41.7 1.9-73.1 10.2-73.1 20.1s31.4 18.2 73.1 20.1v71.9h37.1v-71.9c41.6-1.9 72.9-10.2 72.9-20.1s-31.2-18.2-72.8-20.1zm0 0"/></g><g fill="#5D5C5F"><path d="M653.4 103.9c5.3-6.5 11-11.5 18.4-13.8 16-4.9 31.4-4.1 45.2 6.4 8.1 6.1 12.1 14.9 14.4 24.5 1.6 6.5 2.2 13.1 2.2 19.8 0 18.8 0 37.6.1 56.5 0 2.5-.7 3-3.1 3-7.5-.1-14.9-.1-22.4 0-2 0-2.4-.6-2.4-2.4.1-19.1 0-38.3 0-57.4 0-5.3-.9-10.4-3.3-15.2-4-8.2-12.7-12.8-22.8-12.2-13.9.9-24.5 11.2-26.1 25.4-.3 2.3-.4 4.6-.4 6.9 0 17.5 0 34.9.1 52.4 0 1.9-.4 2.6-2.5 2.5-7.7-.1-15.4-.1-23.1 0-1.6 0-2.2-.4-2.2-2.1V44.6c0-1.8.6-2.2 2.3-2.2 7.7.1 15.4.1 23.1 0 1.9 0 2.3.6 2.3 2.4-.1 18.7 0 37.5 0 56.2.2.6.2 1.4.2 2.9zM487.5 154.4h-41c-2.2 0-2.5.5-2 2.6 2.2 8.7 7.6 14.7 15.7 17.8 15.3 5.9 29.9 3.8 43.6-4.7 3.4-2.1 3.2-2.3 6.2.6 4.3 4.3 8.5 8.5 12.9 12.7 1.3 1.3 1.4 2 0 3.3-8.8 8-19.2 12.5-30.7 14.8-13.3 2.7-26.5 2.3-39.4-2-17.2-5.7-28.8-17.2-34.2-34.6-4.5-14.4-4.6-29 .6-43.2 7.4-20.2 22.5-31.4 43.4-35.1 10.3-1.8 20.6-1.4 30.7 1.3 18.8 4.9 30.5 17 35.6 35.6 2.6 9.7 2.9 19.6 2.1 29.5-.2 1.9-1.3 1.4-2.3 1.4h-41.2zm-13.1-22.9H502c1.7 0 2.4-.2 1.9-2.2-1.8-8-6.4-13.5-13.9-16.6-5.2-2.2-10.7-2.7-16.3-2.6-13.6.4-24.2 7.5-28.5 19.2-.7 1.8-.4 2.3 1.6 2.2h27.6zM818.1 154.4h-41c-2.2 0-2.5.6-2 2.6 2.2 8.8 7.7 14.8 16 17.9 14.9 5.6 29.3 3.6 42.9-4.4 1.3-.8 2.3-2.7 3.8-2.4 1.3.3 2.2 1.9 3.3 3 4.1 4 8.1 8.1 12.3 12 1.8 1.7 1.5 2.6-.2 4-8 7.1-17.4 11.5-27.8 13.9-14.1 3.3-28.2 3.1-42-1.5-20.6-6.9-32.3-21.6-36.1-42.7-2.3-12.8-1.6-25.5 3.6-37.6 8-18.8 22.7-29.2 42.6-32.6 10.7-1.8 21.4-1.3 31.8 1.7 19.2 5.5 30.5 18.5 34.9 37.8 2 8.8 2.2 17.7 1.5 26.7-.1 1.9-1.1 1.7-2.3 1.7-13.8-.1-27.6-.1-41.3-.1zm-13-22.9H833c1.6 0 2-.3 1.7-2-1.8-8.2-6.5-13.8-14.2-16.9-6.2-2.5-12.7-3-19.2-2.2-11.7 1.4-20.6 7-25.1 18.3-1.1 2.8-1.1 2.8 1.8 2.8h27.1zM346.2 140.3c0-7.9-.1-15.9 0-23.8 0-1.9-.6-2.4-2.4-2.3-5.4.1-10.8 0-16.2.1-1.6 0-2.2-.3-2.2-2 .1-6.6.1-13.2 0-19.8 0-1.7.5-2.1 2.1-2.1 5.5.1 11 0 16.4.1 1.9 0 2.2-.6 2.2-2.3-.1-8 0-16-.1-24.1 0-1.6.2-2.3 2.1-2.5 8-.7 15.9-1.6 23.9-2.6 1.7-.2 1.8.5 1.8 1.8 0 9 0 18.1-.1 27.1 0 2 .6 2.5 2.5 2.5 8.7-.1 17.3 0 26-.1 1.8 0 2.3.5 2.2 2.3-.1 6.5-.1 13 0 19.5 0 1.7-.5 2.1-2.1 2.1-8.7-.1-17.3 0-26-.1-2.2 0-2.9.4-2.9 2.8.1 14.9.1 29.8.1 44.8 0 12.2 7.4 18.2 19.4 15.6 2.3-.5 4.6-1.2 6.8-2.2 1.1-.5 1.6-.5 2 .8 2.2 6.9 4.5 13.9 6.8 20.8.3.9.4 1.4-.7 1.8-13.3 4.8-26.9 6.5-40.4 1.3-11.4-4.4-17.4-13.5-20-25.1-.9-4.2-1.2-8.5-1.3-12.8.1-7.1.1-14.3.1-21.6zM552.8 140.1v-25c0-1.6-.4-2.2-2.1-2.1-5.6.1-11.1 0-16.7.1-1.5 0-2.1-.4-2.1-2 .1-6.6.1-13.2 0-19.8 0-1.5.4-2 2-2 5.5.1 11-.1 16.4.1 2.1.1 2.4-.7 2.4-2.6-.1-8.1 0-16.2-.1-24.3 0-1.2.1-2 1.7-2.2 7.9-.7 15.8-1.5 23.7-2.5 1.9-.2 2.4.2 2.4 2.1-.1 9.1 0 18.1-.1 27.2 0 1.8.5 2.3 2.2 2.2 8.7-.1 17.5 0 26.2-.1 1.8 0 2.2.5 2.2 2.3-.1 6.4-.1 12.9 0 19.3 0 1.8-.5 2.2-2.3 2.2-8.7-.1-17.5 0-26.2-.1-1.9 0-2.4.5-2.4 2.4.1 15.3 0 30.6.1 46 0 7.7 3.4 13 9.4 14.7 5.3 1.5 10.4.4 15.4-1.5 2.9-1.1 2.9-1.1 4 1.9 2.1 6.2 4.1 12.5 6.1 18.7.3.9.7 1.7-.7 2.2-12.8 4.6-25.8 6.2-38.9 1.8-12.8-4.3-19.2-14.2-21.7-27-1.6-8.3-.8-16.6-1-24.9.1-2.3.1-4.7.1-7.1zM904.5 101.4c2-2.6 3.7-5 5.8-7 5.4-5 11.9-7.4 19.1-8.1 11.2-1.1 21.8.8 31.3 7.2 4 2.7 3.9 2.7 1.8 7-3 5.9-6.2 11.8-9.1 17.7-.9 1.8-1.5 2.4-3.4.9-10-7.7-26.5-7.6-36.2.1-6.5 5.2-9 12.4-9.1 20.4-.2 19.3-.2 38.6-.1 57.9 0 2.4-.7 2.8-2.9 2.8-7.5-.1-15.1-.1-22.6 0-1.7 0-2.1-.5-2.1-2.1V91.3c0-1.8.5-2.2 2.3-2.2 7.1.1 14.3.1 21.4 0 1.5 0 2 .4 2.2 1.9.4 3.3 1 6.7 1.6 10.4z"/></g><path fill="#EC0928" d="M292.1 158.8c-5.3-3.7-11-7.7-16.6-11.7-.1-.1-.2-.2-.4-.3-.6-.5-1.3-1-2.2-1.2h-.1c-14.9-3.6-30.1-7.3-44.8-10.9-13.3-3.2-26.6-6.5-39.9-9.7-.3-.1-.7-.2-1-.3-1.2-.3-2.6-.7-4.1-.5-.4.1-.8.2-1.1.4l-.4.3c-.6.6-.9 1.3-1 1.7l-.1.2v1.4l.1.2c8.4 23.7 17.1 47.7 25.4 70.9 6.4 17.9 13.1 36.4 19.6 54.6.4 1.2 1.5 2 3 2.2h.3c1.3 0 2.5-.6 3.1-1.7l24.4-35.7c6-8.7 11.9-17.4 17.9-26.1 2.4-3.6 4.9-7.1 7.3-10.7 4-5.9 8.1-11.9 12.2-17.8l.2-.3v-.4c-.1-1.2 0-3.5-1.8-4.6m-28.6 13c-5.7 3-11.6 6.1-17.5 9.2 3.4-3.7 6.9-7.4 10.3-11.1 4.3-4.6 8.8-9.4 13.1-14.1l.1-.1c.4-.5.8-1 1.3-1.5.3-.3.7-.7 1-1.1 2.3 1.6 4.6 3.2 6.8 4.8 1.6 1.1 3.2 2.3 4.9 3.4-6.7 3.5-13.5 7-20 10.5m-14.8-1.5c-4.4 4.8-9 9.7-13.5 14.6-8.8-10.7-17.8-21.6-26.5-32-3.9-4.8-7.9-9.6-11.9-14.3-.9-1-1.8-2.1-2.6-3.2-.6-.7-1.1-1.4-1.7-2.1 3.6.9 7.2 1.8 10.7 2.6 3.1.7 6.4 1.5 9.5 2.3 17.9 4.4 35.8 8.7 53.7 13.1-5.9 6.3-11.9 12.7-17.7 19m-15.5 60.3c.3-3.2.7-6.6 1-9.9.3-2.6.6-5.3.8-7.9.4-4.1.9-8.4 1.3-12.6l.1-.7c.3-2.7.6-5.4.8-8.2.3-.2.7-.4 1.1-.5.5-.2.9-.4 1.4-.7 7.1-3.7 14.2-7.5 21.4-11.2 7.1-3.7 14.4-7.5 21.7-11.4-6.6 9.6-13.2 19.3-19.6 28.7-5.5 8.1-11.2 16.4-16.8 24.6-2.2 3.3-4.5 6.6-6.7 9.8-2.5 3.6-5 7.3-7.5 10.9.3-3.5.6-7.3 1-10.9m-43-90.1c-.4-1.1-.8-2.3-1.2-3.3 8.3 10.1 16.7 20.2 24.9 30.1 4.2 5.1 8.4 10.2 12.7 15.3.8 1 1.7 2 2.5 3 1 1.3 2.1 2.6 3.2 3.9-.4 3.2-.7 6.4-1 9.5-.2 2.2-.4 4.3-.7 6.5-.1 1.4-.3 2.8-.4 4.1-.2 1.9-.7 6.2-.7 6.2v.2c-.6 6.2-1.2 12.6-1.9 18.7-.3 2.5-.5 5.1-.8 7.7-.2-.5-.3-.9-.5-1.4-.5-1.2-.9-2.5-1.4-3.8l-3.3-9.2c-10.4-29.2-20.9-58.3-31.4-87.5"/></svg>