<svg baseProfile="basic" xmlns="http://www.w3.org/2000/svg" viewBox="0 0 720 256"><path d="M303.3 175.9h78.1v9.4h-90.7c0-4.8-.8-9.2 2.8-13.7 24-30.1 47.7-60.5 71.4-90.8.7-.9 1.4-1.8 2.4-3.2h-71.2V68h83.7c.4 5.5.2 10.1-3.6 14.9-23.8 29.8-47.3 60-70.8 90-.6.8-1.1 1.6-2.1 3zM548.9 176.4v3.3c0 5.6 0 5.6-5.5 5.8-8.7.3-12.2-2.8-13.2-11.4-.1-.9-.2-1.8-.4-3.2-1.4 1.8-2.6 3.3-3.7 4.7-5.9 7.7-13.8 11.7-23.4 11.9-4 .1-8.2 0-12.1-.7-12.7-2.2-19.9-11-19.9-23.8 0-10.9 4.6-18.4 15-21.6 8.7-2.6 17.9-3.6 26.9-5.3 2.9-.5 5.8-.7 8.7-1.2 4.7-.8 7-3.2 7.8-7.8 1.7-9.9-3.2-17.7-13-19.4-5.1-.9-10.7-1.1-15.8-.1-9.6 1.8-14.7 6.6-15.8 18.7h-9.8c-.9-9.5 5.2-20.1 14.5-24.4 11.7-5.4 24-5.4 36-1.1 8.9 3.2 13.7 10.4 14.1 19.7.5 14.4.3 28.8.4 43.2v5c-.1 6.9 1.9 8.6 9.2 7.7zm-20-36.2c-2.5.8-4.9 1.8-7.5 2.3-4.9 1-9.9 1.4-14.8 2.5-6 1.4-12.1 2.9-17.9 5.1-3.7 1.3-6.3 4.3-7.3 8.4-1.8 7.4 1.5 14.7 8.5 18.4 4.8 2.5 10 2.6 15.2 2 12.5-1.6 22.1-10.2 23.7-22.2.7-5.6.1-11.3.1-16.5zM645.8 185.4h-10.1V68.1h10V115c1.6-2.5 2.5-4.3 3.8-5.9 4.3-5.5 10-8.8 16.7-10.3 7.4-1.6 14.8-1 21.9 1.7 9.4 3.5 13.8 10.9 15.2 20.4.4 2.5.7 5 .7 7.5.1 18.4 0 36.7 0 55.1 0 .5-.1 1-.1 1.8h-10c-.1-1.2-.2-2.5-.2-3.8-.1-17.9-.1-35.9-.3-53.8 0-2.6-.6-5.2-1.3-7.7-2.2-7.1-7-11.4-14.4-12.7-18.1-3-31.6 9-31.8 28.6-.2 15.2 0 30.5 0 45.7-.1 1.2-.1 2.3-.1 3.8zM553.8 158.2h10c.2.2.4.4.4.6 1.4 15.9 14.6 20.8 26.3 20.4 5.3-.2 10.3-1.3 14.8-4.3 9.7-6.4 9.2-18.9-1.4-23.5-7-3-14.8-4.2-22.2-6.4-4.6-1.4-9.2-2.7-13.6-4.7-15.8-7.1-14.4-28.4-2-36.2 8-5 16.9-6.8 26.1-5.7 4.8.6 9.7 1.9 14 4 8.4 4.2 13.2 13.3 13 22.9h-10c-.2-.9-.3-1.7-.4-2.5-.9-6.4-4.3-11.1-10.2-13.6-7.6-3.3-15.5-3.2-23.1 0-5.1 2.1-8.2 6-8.4 11.7-.2 5.6 2.9 9.4 7.6 11.2 6.5 2.5 13.3 4.1 20 6 4 1.1 8.2 1.7 12.1 3.2 9.2 3.5 15.2 9.9 15.6 20.2.5 10.3-4.5 17.8-13.6 22-12.7 5.9-25.9 6.2-38.9.6-11.1-4.8-15.1-14.4-16.1-25.9zM461.7 127.3c-3.2 0-5.9.1-8.6-.1-.7 0-1.4-.9-2-1.4-.2-.2-.2-.6-.2-.9-2.6-8.6-7.2-15.4-16.6-17.4-10.5-2.2-19.8.1-27 8.4-8.5 9.8-10.3 21.6-8.8 34.1.8 6.1 2.8 11.8 6.3 16.9 6.4 9.5 17 14.2 27.7 11.7 11-2.6 17-10.2 19.3-21.1.1-.7.3-1.4.5-2.3h9.8c.7 13.9-11.5 28.8-25.9 31.7-24.3 4.9-44.9-10.4-47.9-35.5-1.3-10.5-.5-20.7 3.8-30.4 10.7-24.2 36.7-27.2 53.2-19.1 10.2 5.1 15.1 13.8 16.4 25.4z"/><g><circle cx="128" cy="128" r="128"/><linearGradient id="a" gradientUnits="userSpaceOnUse" x1="211.29" y1="516.71" x2="44.71" y2="683.29" gradientTransform="translate(0 -472)"><stop offset="0" stop-color="#ffd25c"/><stop offset="1" stop-color="#cd8421"/></linearGradient><circle fill="url(#a)" cx="128" cy="128" r="117.8"/><path d="M176 159.1h-53v-.5c6.3-6.7 12-14.4 18-22.5l33.2-46.2V67.2h-32.8V45h-27.5v22.3h-30v30h48.5v.5c-6.3 7.5-11.3 13.4-17.6 21.7L80 167.7v21.7h33.7V211h27.5v-21.7H176v-30.2z"/></g></svg>